<svg version="1.2" xmlns="http://www.w3.org/2000/svg" viewBox="0 0 17 16" width="17" height="16">
	<title>wishlist</title>
	<style>
		.s0 { fill: none;stroke: #807d7e;stroke-linecap: round;stroke-linejoin: round;stroke-width: 1.5 } 
		.s1 { fill: #ff0000 } 
	</style>
	<path fill-rule="evenodd" class="s0" d="m8.5 2.6c-1.5-1.8-4-2.2-5.9-0.6-1.9 1.6-2.1 4.3-0.7 6.1 1.3 1.6 5 4.9 6.2 6 0.1 0.1 0.2 0.2 0.3 0.2q0.1 0 0.2 0c0.1 0 0.1-0.1 0.3-0.2 1.2-1.1 4.9-4.4 6.1-6 1.5-1.8 1.3-4.5-0.6-6.1-1.9-1.6-4.4-1.2-5.9 0.6z"/>
	<path id="Shape 1" class="s1" d="m1.6 8.8l6 5.8c0.2 0.3 0.6 0.4 0.9 0.4 0.3 0 0.7-0.1 0.9-0.4l6-5.8c1-0.9 1.6-2.3 1.6-3.7v-0.2c0-2.4-1.7-4.4-4-4.8-1.5-0.3-3 0.2-4.1 1.3l-0.4 0.4-0.4-0.4c-1.1-1.1-2.6-1.6-4.1-1.3-2.3 0.4-4 2.4-4 4.8v0.2c0 1.4 0.6 2.8 1.6 3.7z"/>
</svg>